# xmcd
#
# Track frame offsets: 
#        150
#        14840
#        29727
#        43166
#        56745
#        72471
#        92504
#        104849
#        116844
#        129654
#
# Disc length: 1930 seconds
#
# Revision: 0
# Processed by: cddbd v1.5PL3 Copyright (c) Steve Scherf et al.
# Submitted via: ExactAudioCopy v0.95a5
#
DISCID=9e07880a
DTITLE=Dominion Bluegrass Boys - No Place Like Home
DYEAR=2003
DGENRE=Bluegrass
TTITLE0=No Place Like Home
TTITLE1=Vision Of You
TTITLE2=If We Don't Care
TTITLE3=They'er Not Wild
TTITLE4=Sit Down And Cry
TTITLE5=Beautiful River
TTITLE6=Yesterday's Memories
TTITLE7=Shinny Wheel Chair
TTITLE8=Where I Long To Be
TTITLE9=This Beautiful Earth
EXTD=
EXTT0=
EXTT1=
EXTT2=
EXTT3=
EXTT4=
EXTT5=
EXTT6=
EXTT7=
EXTT8=
EXTT9=
PLAYORDER=
